<svg width="761" height="89" viewBox="0 0 761 89" fill="none" xmlns="http://www.w3.org/2000/svg">
<path d="M18.1969 87.4251H0L27.7267 4.72459H49.6101L77.2976 87.4251H59.1007L38.9822 23.623H38.3547L18.1969 87.4251ZM17.0596 54.9183H60.0419V68.5672H17.0596V54.9183Z" fill="#FFF7F7"/>
<path d="M111.064 88.6366C104.894 88.6366 99.5862 87.2905 95.1415 84.5985C90.723 81.8795 87.3242 78.1106 84.945 73.2917C82.592 68.4729 81.4154 62.9273 81.4154 56.6547C81.4154 50.3014 82.605 44.7288 84.9842 39.9369C87.3896 35.1181 90.8015 31.3627 95.22 28.6706C99.6385 25.9516 104.894 24.5921 110.985 24.5921C116.241 24.5921 120.842 25.5747 124.79 27.5399C128.738 29.5051 131.862 32.2645 134.163 35.8181C136.464 39.3716 137.732 43.5443 137.967 48.3362H122.202C121.757 45.2403 120.581 42.7502 118.672 40.8657C116.79 38.9543 114.319 37.9986 111.26 37.9986C108.672 37.9986 106.41 38.7255 104.475 40.1792C102.567 41.606 101.076 43.6924 100.005 46.4383C98.9326 49.1842 98.3966 52.5089 98.3966 56.4124C98.3966 60.3698 98.9195 63.7349 99.9653 66.5077C101.037 69.2805 102.541 71.3938 104.475 72.8475C106.41 74.3013 108.672 75.0281 111.26 75.0281C113.169 75.0281 114.881 74.6243 116.397 73.8167C117.94 73.0091 119.208 71.838 120.201 70.3035C121.221 68.7421 121.888 66.8711 122.202 64.6906H137.967C137.706 69.4286 136.451 73.6013 134.202 77.2087C131.98 80.7892 128.908 83.5889 124.986 85.608C121.064 87.627 116.424 88.6366 111.064 88.6366Z" fill="#FFF7F7"/>
<path d="M165.841 88.5962C161.998 88.5962 158.573 87.9097 155.566 86.5368C152.559 85.1369 150.18 83.0774 148.428 80.3584C146.703 77.6125 145.84 74.1936 145.84 70.1016C145.84 66.6558 146.454 63.7618 147.683 61.4197C148.912 59.0776 150.585 57.1931 152.703 55.7663C154.821 54.3395 157.226 53.2627 159.919 52.5358C162.638 51.809 165.488 51.2975 168.468 51.0014C171.972 50.6245 174.795 50.2745 176.939 49.9515C179.083 49.6015 180.639 49.09 181.606 48.417C182.574 47.7439 183.057 46.7479 183.057 45.4288V45.1865C183.057 42.629 182.273 40.6503 180.704 39.2505C179.162 37.8506 176.966 37.1506 174.116 37.1506C171.109 37.1506 168.717 37.8371 166.939 39.2101C165.161 40.5561 163.985 42.2521 163.409 44.2981L147.958 43.0059C148.742 39.237 150.285 35.9796 152.585 33.2337C154.886 30.4608 157.854 28.3341 161.488 26.8534C165.148 25.3459 169.383 24.5921 174.194 24.5921C177.541 24.5921 180.743 24.9959 183.802 25.8035C186.888 26.6112 189.62 27.863 191.999 29.559C194.404 31.255 196.3 33.4356 197.685 36.1007C199.071 38.739 199.764 41.9021 199.764 45.5903V87.4251H183.92V78.824H183.449C182.482 80.7623 181.188 82.4717 179.567 83.9524C177.946 85.4061 175.998 86.5502 173.724 87.3848C171.449 88.1924 168.821 88.5962 165.841 88.5962ZM170.625 76.7241C173.083 76.7241 175.253 76.2261 177.135 75.23C179.018 74.207 180.495 72.8341 181.567 71.1112C182.639 69.3882 183.175 67.4365 183.175 65.2559V58.6738C182.652 59.0237 181.933 59.3468 181.018 59.6429C180.129 59.9121 179.122 60.1679 177.998 60.4102C176.874 60.6255 175.75 60.8274 174.626 61.0159C173.501 61.1774 172.482 61.3255 171.567 61.4601C169.606 61.7562 167.893 62.2273 166.429 62.8734C164.965 63.5195 163.828 64.3944 163.017 65.4982C162.207 66.575 161.801 67.9211 161.801 69.5363C161.801 71.8784 162.625 73.6686 164.272 74.907C165.945 76.1184 168.063 76.7241 170.625 76.7241Z" fill="#FFF7F7"/>
<path d="M234.922 88.4347C230.347 88.4347 226.203 87.2232 222.49 84.8004C218.804 82.3506 215.876 78.7567 213.706 74.0186C211.562 69.2536 210.49 63.4118 210.49 56.4932C210.49 49.3861 211.601 43.477 213.823 38.7659C216.046 34.0278 219 30.4878 222.687 28.1456C226.399 25.7766 230.465 24.5921 234.883 24.5921C238.256 24.5921 241.066 25.1844 243.315 26.3689C245.59 27.5265 247.42 28.9802 248.805 30.73C250.217 32.453 251.289 34.149 252.021 35.8181H252.531V4.72459H269.198V87.4251H252.727V77.4914H252.021C251.237 79.2143 250.126 80.9238 248.688 82.6198C247.276 84.2889 245.433 85.6753 243.158 86.779C240.91 87.8828 238.164 88.4347 234.922 88.4347ZM240.217 74.7455C242.91 74.7455 245.184 73.9917 247.041 72.4841C248.923 70.9496 250.361 68.8094 251.354 66.0635C252.374 63.3176 252.884 60.1006 252.884 56.4124C252.884 52.7243 252.387 49.5207 251.394 46.8017C250.4 44.0827 248.962 41.9829 247.08 40.5023C245.197 39.0216 242.91 38.2813 240.217 38.2813C237.472 38.2813 235.158 39.0485 233.275 40.583C231.393 42.1175 229.968 44.2443 229.001 46.9632C228.033 49.6822 227.549 52.832 227.549 56.4124C227.549 60.0198 228.033 63.2099 229.001 65.9828C229.994 68.7287 231.419 70.8823 233.275 72.4437C235.158 73.9782 237.472 74.7455 240.217 74.7455Z" fill="#FFF7F7"/>
<path d="M310.387 88.6366C304.19 88.6366 298.857 87.3444 294.386 84.76C289.941 82.1487 286.516 78.4605 284.111 73.6956C281.706 68.9037 280.503 63.2368 280.503 56.6951C280.503 50.3149 281.706 44.7154 284.111 39.8966C286.516 35.0777 289.902 31.3223 294.268 28.6302C298.661 25.9381 303.811 24.5921 309.72 24.5921C313.694 24.5921 317.393 25.2517 320.818 26.5708C324.27 27.863 327.276 29.8147 329.838 32.426C332.427 35.0374 334.44 38.3217 335.878 42.279C337.316 46.2095 338.035 50.8129 338.035 56.0894V60.814H287.17V50.1534H322.309C322.309 47.6767 321.786 45.4826 320.74 43.5712C319.694 41.6599 318.243 40.1658 316.387 39.0889C314.557 37.9852 312.426 37.4333 309.994 37.4333C307.458 37.4333 305.21 38.039 303.249 39.2505C301.314 40.435 299.798 42.0368 298.7 44.0558C297.602 46.0479 297.04 48.2689 297.013 50.7187V60.8544C297.013 63.9233 297.562 66.575 298.661 68.8094C299.785 71.0439 301.367 72.7668 303.406 73.9782C305.445 75.1897 307.864 75.7954 310.661 75.7954C312.517 75.7954 314.217 75.5262 315.759 74.9877C317.302 74.4493 318.622 73.6417 319.72 72.5649C320.818 71.4881 321.655 70.1689 322.23 68.6075L337.682 69.6574C336.898 73.4802 335.29 76.8184 332.858 79.672C330.453 82.4986 327.342 84.7061 323.524 86.2945C319.733 87.8559 315.354 88.6366 310.387 88.6366Z" fill="#FFF7F7"/>
<path d="M348.937 87.4251V25.3997H364.86V36.343H365.566C366.82 32.7087 368.912 29.8417 371.84 27.7418C374.769 25.642 378.272 24.5921 382.351 24.5921C386.481 24.5921 389.998 25.6555 392.9 27.7822C395.802 29.882 397.737 32.7356 398.704 36.343H399.332C400.561 32.7895 402.783 29.9493 405.999 27.8226C409.241 25.6689 413.071 24.5921 417.489 24.5921C423.111 24.5921 427.673 26.4362 431.176 30.1243C434.706 33.7855 436.471 38.9812 436.471 45.7114V87.4251H419.803V49.1035C419.803 45.6576 418.914 43.0732 417.136 41.3503C415.359 39.6273 413.136 38.7659 410.47 38.7659C407.437 38.7659 405.071 39.762 403.371 41.7541C401.672 43.7193 400.822 46.3172 400.822 49.5476V87.4251H384.625V48.74C384.625 45.698 383.776 43.2751 382.076 41.4714C380.403 39.6677 378.194 38.7659 375.448 38.7659C373.592 38.7659 371.919 39.2505 370.428 40.2196C368.964 41.1618 367.801 42.4944 366.938 44.2173C366.075 45.9133 365.644 47.9055 365.644 50.1937V87.4251H348.937Z" fill="#FFF7F7"/>
<path d="M449.667 87.4251V25.3997H466.374V87.4251H449.667ZM458.06 17.4043C455.576 17.4043 453.445 16.5563 451.667 14.8603C449.916 13.1373 449.04 11.0779 449.04 8.68194C449.04 6.31292 449.916 4.2804 451.667 2.5844C453.445 0.861465 455.576 0 458.06 0C460.544 0 462.661 0.861465 464.413 2.5844C466.191 4.2804 467.08 6.31292 467.08 8.68194C467.08 11.0779 466.191 13.1373 464.413 14.8603C462.661 16.5563 460.544 17.4043 458.06 17.4043Z" fill="#FFF7F7"/>
<path d="M496.934 88.5962C493.091 88.5962 489.666 87.9097 486.659 86.5368C483.653 85.1369 481.273 83.0774 479.522 80.3584C477.796 77.6125 476.933 74.1936 476.933 70.1016C476.933 66.6558 477.548 63.7618 478.777 61.4197C480.005 59.0776 481.679 57.1931 483.796 55.7663C485.914 54.3395 488.319 53.2627 491.012 52.5358C493.731 51.809 496.581 51.2975 499.562 51.0014C503.065 50.6245 505.889 50.2745 508.033 49.9515C510.177 49.6015 511.732 49.09 512.7 48.417C513.667 47.7439 514.151 46.7479 514.151 45.4288V45.1865C514.151 42.629 513.366 40.6503 511.798 39.2505C510.255 37.8506 508.059 37.1506 505.209 37.1506C502.202 37.1506 499.81 37.8371 498.032 39.2101C496.254 40.5561 495.078 42.2521 494.503 44.2981L479.051 43.0059C479.835 39.237 481.378 35.9796 483.679 33.2337C485.979 30.4608 488.947 28.3341 492.581 26.8534C496.241 25.3459 500.477 24.5921 505.287 24.5921C508.634 24.5921 511.837 24.9959 514.896 25.8035C517.981 26.6112 520.713 27.863 523.092 29.559C525.498 31.255 527.393 33.4356 528.779 36.1007C530.164 38.739 530.857 41.9021 530.857 45.5903V87.4251H515.013V78.824H514.543C513.576 80.7623 512.281 82.4717 510.66 83.9524C509.039 85.4061 507.092 86.5502 504.817 87.3848C502.542 88.1924 499.915 88.5962 496.934 88.5962ZM501.719 76.7241C504.176 76.7241 506.346 76.2261 508.229 75.23C510.111 74.207 511.588 72.8341 512.66 71.1112C513.732 69.3882 514.268 67.4365 514.268 65.2559V58.6738C513.745 59.0237 513.026 59.3468 512.111 59.6429C511.222 59.9121 510.216 60.1679 509.092 60.4102C507.967 60.6255 506.843 60.8274 505.719 61.0159C504.595 61.1774 503.575 61.3255 502.66 61.4601C500.699 61.7562 498.987 62.2273 497.522 62.8734C496.058 63.5195 494.921 64.3944 494.111 65.4982C493.3 66.575 492.895 67.9211 492.895 69.5363C492.895 71.8784 493.718 73.6686 495.365 74.907C497.039 76.1184 499.157 76.7241 501.719 76.7241Z" fill="#FFF7F7"/>
<path d="M561.8 89C557.917 89 554.584 87.5867 551.799 84.76C549.054 81.8929 547.682 78.4605 547.682 74.4628C547.682 70.5054 549.054 67.1134 551.799 64.2868C554.584 61.4601 557.917 60.0467 561.8 60.0467C565.565 60.0467 568.859 61.4601 571.683 64.2868C574.506 67.1134 575.918 70.5054 575.918 74.4628C575.918 77.1279 575.251 79.571 573.918 81.792C572.624 83.9725 570.918 85.7291 568.8 87.0617C566.682 88.3539 564.349 89 561.8 89Z" fill="#4747EB"/>
<path d="M609.866 51.5667V87.4251H593.159V25.3997H609.081V36.343H609.787C611.121 32.7356 613.356 29.882 616.494 27.7822C619.631 25.6555 623.435 24.5921 627.906 24.5921C632.089 24.5921 635.736 25.5343 638.847 27.4188C641.959 29.3032 644.377 31.9953 646.103 35.495C647.828 38.9678 648.691 43.1136 648.691 47.9324V87.4251H631.984V51.0014C632.01 47.2055 631.069 44.2443 629.161 42.1175C627.252 39.9639 624.625 38.887 621.278 38.887C619.03 38.887 617.043 39.3851 615.317 40.3811C613.618 41.3772 612.284 42.8309 611.317 44.7423C610.376 46.6267 609.892 48.9015 609.866 51.5667Z" fill="#FFF7F7"/>
<path d="M689.31 88.6366C683.114 88.6366 677.781 87.3444 673.31 84.76C668.865 82.1487 665.44 78.4605 663.035 73.6956C660.63 68.9037 659.427 63.2368 659.427 56.6951C659.427 50.3149 660.63 44.7154 663.035 39.8966C665.44 35.0777 668.826 31.3223 673.192 28.6302C677.584 25.9381 682.735 24.5921 688.644 24.5921C692.618 24.5921 696.317 25.2517 699.742 26.5708C703.193 27.863 706.2 29.8147 708.762 32.426C711.351 35.0374 713.364 38.3217 714.802 42.279C716.24 46.2095 716.959 50.8129 716.959 56.0894V60.814H666.094V50.1534H701.233C701.233 47.6767 700.71 45.4826 699.664 43.5712C698.618 41.6599 697.167 40.1658 695.311 39.0889C693.481 37.9852 691.35 37.4333 688.918 37.4333C686.382 37.4333 684.134 38.039 682.173 39.2505C680.238 40.435 678.722 42.0368 677.624 44.0558C676.526 46.0479 675.964 48.2689 675.937 50.7187V60.8544C675.937 63.9233 676.486 66.575 677.585 68.8094C678.709 71.0439 680.291 72.7668 682.33 73.9782C684.369 75.1897 686.788 75.7954 689.585 75.7954C691.441 75.7954 693.141 75.5262 694.683 74.9877C696.226 74.4493 697.546 73.6417 698.644 72.5649C699.742 71.4881 700.579 70.1689 701.154 68.6075L716.606 69.6574C715.821 73.4802 714.214 76.8184 711.782 79.672C709.377 82.4986 706.266 84.7061 702.448 86.2945C698.657 87.8559 694.278 88.6366 689.31 88.6366Z" fill="#FFF7F7"/>
<path d="M759.902 25.3997V38.3217H723.626V25.3997H759.902ZM731.861 10.5395H748.568V68.3652C748.568 69.9536 748.803 71.1919 749.274 72.0803C749.745 72.9418 750.398 73.5475 751.235 73.8975C752.098 74.2474 753.091 74.4224 754.215 74.4224C755 74.4224 755.784 74.3551 756.568 74.2205C757.353 74.059 757.954 73.9378 758.372 73.8571L761 86.6579C760.163 86.9271 758.987 87.2367 757.47 87.5867C755.954 87.9635 754.111 88.1924 751.941 88.2731C747.914 88.4347 744.385 87.8828 741.352 86.6175C738.345 85.3522 736.005 83.387 734.332 80.7219C732.659 78.0567 731.835 74.6916 731.861 70.6266V10.5395Z" fill="#FFF7F7"/>
</svg>
